<?xml version="1.0" standalone="no"?>
<!DOCTYPE svg PUBLIC "-//W3C//DTD SVG 20010904//EN"
 "http://www.w3.org/TR/2001/REC-SVG-20010904/DTD/svg10.dtd">
<svg version="1.0" xmlns="http://www.w3.org/2000/svg"
 width="256.000000pt" height="256.000000pt" viewBox="0 0 256.000000 256.000000"
 preserveAspectRatio="xMidYMid meet">

<g transform="translate(0.000000,256.000000) scale(0.100000,-0.100000)"
fill="#000000" stroke="none">
<path d="M1174 1978 c-59 -71 -84 -165 -64 -248 24 -99 84 -137 135 -85 29 28
30 38 10 95 -19 54 -19 104 0 166 19 62 19 69 -1 88 -24 24 -50 19 -80 -16z"/>
<path d="M1365 1979 c-86 -103 -98 -246 -29 -329 32 -37 66 -39 99 -5 29 28
30 36 10 90 -19 53 -19 119 1 184 14 49 14 54 -2 72 -25 27 -48 24 -79 -12z"/>
<path d="M397 1730 c-55 -10 -85 -29 -110 -69 -20 -33 -22 -50 -25 -228 l-4
-193 -25 -20 c-14 -11 -36 -20 -48 -20 -27 0 -55 -29 -55 -58 0 -28 22 -48 64
-56 58 -11 60 -20 66 -230 4 -169 7 -195 25 -226 26 -44 70 -69 133 -77 42 -5
53 -2 71 16 11 11 21 30 21 41 0 27 -35 60 -63 60 -12 0 -32 7 -44 15 -20 14
-22 24 -25 208 -2 155 -6 198 -20 222 -15 28 -15 32 0 60 14 24 18 67 20 222
3 184 5 194 25 208 12 8 34 15 49 15 29 0 58 31 58 62 0 24 -35 58 -57 57 -10
-1 -35 -5 -56 -9z"/>
<path d="M2090 1732 c-63 -19 -45 -112 21 -112 14 0 34 -6 45 -14 17 -13 19
-31 24 -208 4 -153 9 -199 22 -223 15 -28 15 -32 0 -60 -13 -24 -18 -70 -22
-223 -5 -177 -7 -195 -24 -208 -11 -8 -30 -14 -43 -14 -28 0 -63 -33 -63 -60
0 -11 10 -30 21 -41 18 -18 29 -21 70 -16 62 8 104 32 132 77 20 32 22 50 25
215 1 99 5 190 7 202 4 16 17 26 48 34 52 15 77 36 77 64 0 29 -27 51 -72 59
-21 4 -41 12 -45 19 -4 7 -10 100 -13 207 -6 219 -12 241 -79 278 -37 20 -104
33 -131 24z"/>
</g>
</svg>
